<svg xmlns="http://www.w3.org/2000/svg" width="1200" height="360" viewBox="0 0 1200 360" role="img" aria-labelledby="title desc">
  <title id="title">Root My Galaxy</title>
  <desc id="desc">Temporary KernelSU root for Galaxy S25 Ultra SM-S938B</desc>
  <defs>
    <linearGradient id="bg" x1="0" y1="0" x2="1" y2="1">
      <stop offset="0" stop-color="#0d1117"/>
      <stop offset="1" stop-color="#172018"/>
    </linearGradient>
    <radialGradient id="glow" cx="0.2" cy="0.5" r="0.65">
      <stop offset="0" stop-color="#78966f" stop-opacity="0.34"/>
      <stop offset="1" stop-color="#78966f" stop-opacity="0"/>
    </radialGradient>
  </defs>
  <rect width="1200" height="360" rx="28" fill="url(#bg)"/>
  <rect width="1200" height="360" rx="28" fill="url(#glow)"/>
  <circle cx="170" cy="180" r="92" fill="#78966f" fill-opacity="0.12" stroke="#8eae84" stroke-opacity="0.36" stroke-width="2"/>
  <g transform="translate(79 102) scale(4.2)" fill="#a8c79d">
    <path d="M18.60 16.70C18.60 23.40 18.50 29.40 18.00 34.90C17.80 36.80 19.20 38.10 21.10 38.10C23.00 38.10 24.40 36.80 24.20 34.90C23.70 29.40 23.60 23.40 23.80 16.70Z"/>
    <path d="M20.80 19.40C14.40 22.10 5.50 18.10 1.70 10.10C0.20 7.00 0.00 3.40 1.10 0.60C4.30 0.00 8.10 0.70 11.50 2.40C18.20 5.60 21.80 11.50 22.20 17.20C22.30 18.30 21.80 19.00 20.80 19.40Z"/>
    <path d="M22.50 17.30C23.70 10.90 27.60 5.90 33.70 2.90C37.20 1.20 41.00 0.60 44.30 1.30C45.30 4.20 45.00 7.60 43.60 10.70C39.90 18.40 31.60 22.10 24.80 20.40C23.10 20.00 22.20 18.90 22.50 17.30Z"/>
  </g>
  <text x="310" y="158" fill="#f0f6fc" font-family="Inter,Segoe UI,Arial,sans-serif" font-size="62" font-weight="700" letter-spacing="-1.5">Root My Galaxy</text>
  <text x="313" y="210" fill="#b7c4b5" font-family="Inter,Segoe UI,Arial,sans-serif" font-size="25" font-weight="500">Temporary KernelSU root for Galaxy S25 Ultra SM-S938B</text>
  <text x="313" y="255" fill="#8b949e" font-family="Inter,Segoe UI,Arial,sans-serif" font-size="20">No bootloader unlock · firmware-aware · optional Auto Root</text>
</svg>
